<svg xmlns="http://www.w3.org/2000/svg" width="249.447" height="215.996" viewBox="0 0 249.447 215.996"><defs><style>.a{fill:#f5f5f5;}.b{fill:#ebebeb;}.c{fill:#149dff;}.d,.i{opacity:0.1;}.e,.j{fill:#fff;}.f,.l{fill:#fafafa;}.g{fill:#e0e0e0;}.h{fill:#455a64;}.j{opacity:0.4;}.k{opacity:0.2;}.l{stroke:#e0e0e0;stroke-miterlimit:10;stroke-width:1.17px;}.m{fill:#37474f;}</style></defs><g transform="translate(-18.884 -50.039)"><g transform="translate(18.884 141.175)"><path class="a" d="M54.65,326.227c47.692,24.383,125.016,24.383,172.7,0s47.692-63.94,0-88.3-125.01-24.383-172.7,0S6.964,301.849,54.65,326.227Z" transform="translate(-18.884 -219.654)"/></g><g transform="translate(59.615 187.225)"><path class="b" d="M374.443,327.328c2.617,1.51,7.753.989,11.472-1.161l21.449-12.46c3.724-2.149,4.615-5.115,2-6.63s-7.748-.978-11.472,1.171L376.452,320.72C372.729,322.853,371.831,325.819,374.443,327.328Z" transform="translate(-223.438 -305.755)"/><path class="b" d="M116.515,345.2,94.69,332.6,116.515,320Z" transform="translate(-94.69 -312.134)"/><path class="b" d="M219.828,345.964,184.65,325.643l35.183-20.283Z" transform="translate(-136.314 -305.36)"/></g><g transform="translate(19.989 144.462)"><g transform="translate(0 13.835)"><path class="c" d="M52.868,284.054c.064-5.1-3.5-15.727-8.721-22.417S30.645,250,24.734,251.95C19.2,253.772,19.71,261,26.346,265.877s16.6,11.009,19.445,19.343l6.045,10.209Z" transform="translate(-20.942 -251.521)"/><path class="d" d="M52.868,284.054c.064-5.1-3.5-15.727-8.721-22.417S30.645,250,24.734,251.95C19.2,253.772,19.71,261,26.346,265.877s16.6,11.009,19.445,19.343l6.045,10.209Z" transform="translate(-20.942 -251.521)"/><path class="e" d="M58.393,294.012a.371.371,0,0,1-.333-.306c-3.224-17.468-17.14-31.8-25.538-35.033a.376.376,0,1,1,.269-.7c8.559,3.294,22.744,17.866,26,35.6a.371.371,0,0,1-.3.435Z" transform="translate(-26.171 -254.488)"/><path class="c" d="M53.075,321.13c-.784-2.88-4.234-7.657-9.854-11.638-6.222-4.4-14.131-6.485-15.92-9.876-2.149-4.073,1.306-7.855,7.737-6.985s17.651,9.811,19.306,23.061Z" transform="translate(-23.589 -270.484)"/><path class="e" d="M58.922,321.162a.376.376,0,0,1-.322-.247c-5.164-15-16.49-20.375-21.756-21.122a.372.372,0,0,1,.1-.736c5.824.827,17.092,6.308,22.363,21.611a.381.381,0,0,1-.231.478.4.4,0,0,1-.156.016Z" transform="translate(-28.151 -273.514)"/></g><g transform="translate(218.324)"><path class="c" d="M431.524,257.6s.715-10.746,7.055-18.752,5.953-11.283,1.58-12.9-14.507,8.033-12.272,20.9S431.524,257.6,431.524,257.6Z" transform="translate(-427.409 -225.772)"/><path class="d" d="M431.524,257.6s.715-10.746,7.055-18.752,5.953-11.283,1.58-12.9-14.507,8.033-12.272,20.9S431.524,257.6,431.524,257.6Z" transform="translate(-427.409 -225.772)"/><path class="e" d="M431.063,252.862a.253.253,0,0,1-.253-.231c-.736-11.853,7.63-21.578,10.746-23.781a.242.242,0,0,1,.344.059.253.253,0,0,1-.059.349c-3.073,2.149-11.284,11.7-10.553,23.341a.253.253,0,0,1-.231.263Z" transform="translate(-428.888 -227.174)"/><path class="c" d="M429.661,281.408a56.617,56.617,0,0,0,8.747,2.106c4.911.774,7.082-1.574,7.082-1.574s-1.934-4.6-4.723-5.91a27.461,27.461,0,0,1,8.522,3.5s3,.048,4.191-4.53c0,0-1.773-2.756-7.737-4.245a19.639,19.639,0,0,1,8.855.419c.392.156,2.063-5.76,2.568-8.489s-.591-2.687-2.719-3.272-9.183-2.149-10.515-.983-2.01,5.174-2.01,5.174a9.446,9.446,0,0,1-.2-5.072,8.16,8.16,0,0,0-4.889.118c-2.429.7-2.547,2.359-2.439,4.229a18.2,18.2,0,0,0,1.075,4.75s-1.9-2.429-1.956-7.7c0,0-4.975,2.472-5.824,7.415C427.2,270.023,426.54,277.883,429.661,281.408Z" transform="translate(-427.271 -240.687)"/><path class="e" d="M433.224,282.957a.285.285,0,0,0,.253-.156c3.96-8.237,18.7-17.806,23.975-18.833a.274.274,0,0,0,.22-.322.285.285,0,0,0-.328-.22c-5.373,1.048-20.343,10.746-24.367,19.134a.279.279,0,0,0,.129.371A.318.318,0,0,0,433.224,282.957Z" transform="translate(-429.898 -243.192)"/></g></g><g transform="translate(48.702 50.039)"><path class="f" d="M75.943,218.846c-.607,0-.973-.5-.973-1.343V127.122l110.7-63.9v90.015A4.8,4.8,0,0,1,183.522,157l-106.7,61.576A1.789,1.789,0,0,1,75.943,218.846Z" transform="translate(-74.653 -56.138)"/><path class="g" d="M185.066,63.291v89.473a4.54,4.54,0,0,1-2.015,3.487L76.395,217.826a1.488,1.488,0,0,1-.725.236c-.6,0-.661-.725-.661-1.032v-90.2L185.066,63.291m.629-1.075L74.38,126.467v90.563c0,1.075.537,1.66,1.29,1.66a2.106,2.106,0,0,0,1.037-.317l106.661-61.581a5.147,5.147,0,0,0,2.327-4.03V62.2Z" transform="translate(-74.38 -55.666)"/><path class="c" d="M74.39,126.467v15.125L185.7,77.325V62.2Z" transform="translate(-74.385 -55.666)"/><path class="f" d="M90.63,165.256v2.149c0,.441.317.623.7.4l34.221-19.757V144.29L91.328,164.047a1.564,1.564,0,0,0-.7,1.209Z" transform="translate(-81.899 -93.648)"/><path class="h" d="M159.29,140.267c.387-.226.7-.043.7.4v2.149a1.553,1.553,0,0,1-.7,1.209l-3.67,2.117v-3.761Z" transform="translate(-111.969 -91.742)"/><path class="h" d="M74.38,115.967a5.147,5.147,0,0,1,2.327-4.03L183.368,50.357c1.284-.741,2.327-.14,2.327,1.343v4.873L74.38,120.841Z" transform="translate(-74.38 -50.039)"/><path class="c" d="M257.595,66.01A2.4,2.4,0,0,0,256.52,67.9c0,.7.489.978,1.075.634a2.413,2.413,0,0,0,1.075-1.891C258.691,65.934,258.2,65.66,257.595,66.01Z" transform="translate(-158.655 -57.359)"/><path class="c" d="M264.075,62.291A2.4,2.4,0,0,0,263,64.176c0,.7.489.978,1.075.634a2.423,2.423,0,0,0,1.075-1.891C265.149,62.221,264.655,61.941,264.075,62.291Z" transform="translate(-161.653 -55.638)"/><path class="c" d="M270.465,58.571a2.4,2.4,0,0,0-1.075,1.886c0,.7.489.978,1.075.634a2.423,2.423,0,0,0,1.075-1.891C271.555,58.5,271.066,58.221,270.465,58.571Z" transform="translate(-164.609 -53.917)"/><g class="i" transform="translate(63.096 18.565)"><path d="M214.5,108.391a5.276,5.276,0,0,0-2.38,4.137c0,1.521,1.075,2.149,2.38,1.376a5.266,5.266,0,0,0,2.386-4.132C216.891,108.252,215.817,107.634,214.5,108.391Z" transform="translate(-201.207 -95.454)"/><path d="M194.2,120.122a5.266,5.266,0,0,0-2.386,4.132c0,1.521,1.075,2.149,2.386,1.381a5.276,5.276,0,0,0,2.38-4.137C196.576,119.977,195.512,119.37,194.2,120.122Z" transform="translate(-191.81 -100.882)"/><path d="M234.81,96.7a5.266,5.266,0,0,0-2.38,4.132c0,1.521,1.075,2.149,2.38,1.376a5.26,5.26,0,0,0,2.386-4.132C237.2,96.532,236.132,95.914,234.81,96.7Z" transform="translate(-210.605 -90.037)"/><path d="M255.126,84.918a5.266,5.266,0,0,0-2.386,4.132c0,1.521,1.075,2.149,2.386,1.376a5.266,5.266,0,0,0,2.386-4.132C257.511,84.773,256.442,84.155,255.126,84.918Z" transform="translate(-220.002 -84.591)"/></g><path class="g" d="M93,199l25.9-14.959c1.284-.741,2.327-.14,2.327,1.343v24.872a5.147,5.147,0,0,1-2.327,4.03L93,229.235c-1.284.741-2.327.14-2.327-1.343V203.025A5.147,5.147,0,0,1,93,199Z" transform="translate(-81.917 -111.892)"/><path class="g" d="M162,145.038l54.268-31.314c1.284-.747,2.327-.145,2.327,1.343v24.867a5.148,5.148,0,0,1-2.327,4.03L162,175.278c-1.284.742-2.327.14-2.327-1.343V149.068a5.147,5.147,0,0,1,2.327-4.03Z" transform="translate(-113.843 -79.357)"/><path class="g" d="M93,261.737l41.179-23.776c1.29-.741,2.332-.215,2.332,1.177A4.992,4.992,0,0,1,134.181,243L93,266.776c-1.284.742-2.327.215-2.327-1.177A4.992,4.992,0,0,1,93,261.737Z" transform="translate(-81.917 -136.833)"/><path class="g" d="M93,278.157l41.179-23.776c1.29-.741,2.332-.215,2.332,1.177a4.992,4.992,0,0,1-2.327,3.863L93,283.2c-1.284.741-2.327.215-2.327-1.177A4.992,4.992,0,0,1,93,278.157Z" transform="translate(-81.917 -144.431)"/><path class="g" d="M93,294.567l41.179-23.776c1.29-.741,2.332-.215,2.332,1.177a4.992,4.992,0,0,1-2.327,3.863L93,299.606c-1.284.741-2.327.215-2.327-1.177A4.992,4.992,0,0,1,93,294.567Z" transform="translate(-81.917 -152.023)"/></g><g transform="translate(79.259 118.696)"><path class="c" d="M131.25,221.8a3.1,3.1,0,0,1,1.4-2.418l71.414-41.228a3.084,3.084,0,0,1,2.794,0l1.574.908a3.084,3.084,0,0,1,1.392,2.418v54.741a3.1,3.1,0,0,1-1.392,2.418l-71.4,41.228a3.084,3.084,0,0,1-2.794,0l-1.574-.908a3.1,3.1,0,0,1-1.4-2.418Z" transform="translate(-131.25 -177.817)"/><path class="j" d="M132,220.422l3.965,2.289L209.754,180.1a2.939,2.939,0,0,0-.983-1.048l-1.547-.9a3.063,3.063,0,0,0-2.783,0L132.994,219.38A2.891,2.891,0,0,0,132,220.422Z" transform="translate(-131.597 -177.817)"/><path class="d" d="M131.25,258.486v54.741a3.1,3.1,0,0,0,1.4,2.418l1.574.908a2.056,2.056,0,0,0,.382.172,3.107,3.107,0,0,0,.575.134,3.438,3.438,0,0,0,1.1-.043,2.037,2.037,0,0,0,.274-.07l.167-.064a.849.849,0,0,1-.672,0,.967.967,0,0,1-.424-.919V261.011a1.23,1.23,0,0,1,.725-1.193l-.725-.419-3.971-2.289A2.858,2.858,0,0,0,131.25,258.486Z" transform="translate(-131.25 -214.505)"/><path class="k" d="M139.384,224.549l33.071,12.358a5.373,5.373,0,0,0,6.378-2.1l5.309-8.135,29.294-44.881L185.2,226.978l28.381,11.106a2.885,2.885,0,0,1-.435,1.392l-28.021-12.358-6.19,9.86a5.373,5.373,0,0,1-6.727,2.063l-4.4-1.94-28,44.742a.967.967,0,0,1-.424-.919v-.908l28.305-42.947Z" transform="translate(-135.011 -179.655)"/></g><g transform="translate(142.554 63.8)"><path class="l" d="M249.05,112.595V238.271c0,1.483,1.042,2.085,2.327,1.343l56.46-32.6a5.147,5.147,0,0,0,2.327-4.03V77.31c0-1.483-1.042-2.085-2.327-1.343l-56.46,32.6a5.137,5.137,0,0,0-2.327,4.03Z" transform="translate(-249.05 -75.649)"/><path class="h" d="M255.14,144.643a1.284,1.284,0,0,1,.607-.978l6.448-3.713c.333-.193.6-.064.6.285a1.279,1.279,0,0,1-.6.978l-6.448,3.713C255.414,145.121,255.14,144.992,255.14,144.643Z" transform="translate(-251.868 -105.36)"/><path class="h" d="M255.14,149.3a1.279,1.279,0,0,1,.607-.978l6.448-3.713c.333-.193.6-.064.6.279a1.279,1.279,0,0,1-.6.983l-6.448,3.707C255.414,149.776,255.14,149.652,255.14,149.3Z" transform="translate(-251.868 -107.516)"/><path class="h" d="M255.14,153.962a1.279,1.279,0,0,1,.607-.978l6.448-3.713c.333-.193.6-.07.6.279a1.268,1.268,0,0,1-.6.978l-6.448,3.713C255.414,154.456,255.14,154.311,255.14,153.962Z" transform="translate(-251.868 -109.671)"/><path class="m" d="M348.876,95.623v-1a.07.07,0,0,0-.1-.064L348,94.9a.091.091,0,0,1-.129-.059,1.65,1.65,0,0,0-.172-.381.209.209,0,0,1,0-.188l.537-1.042a.113.113,0,0,0-.048-.15l-.537-.322a.118.118,0,0,0-.15.038l-.645.967a.2.2,0,0,1-.167.081,1.913,1.913,0,0,0-.419.043.091.091,0,0,1-.118-.081l-.086-.844a.062.062,0,0,0-.1-.054l-.87.5a.231.231,0,0,0-.1.161l-.086.967a.35.35,0,0,1-.091.183,4.834,4.834,0,0,0-.484.537.161.161,0,0,1-.172.048l-.537-.193a.134.134,0,0,0-.156.059l-.639,1.107a.14.14,0,0,0,.027.161l.451.387a.172.172,0,0,1,.043.172,5.4,5.4,0,0,0-.2.677.333.333,0,0,1-.107.167l-.8.537a.236.236,0,0,0-.091.172v1a.064.064,0,0,0,.1.064l.774-.349a.1.1,0,0,1,.129.064,1.65,1.65,0,0,0,.172.381.21.21,0,0,1,0,.188l-.537,1.037a.124.124,0,0,0,.048.156l.537.322a.118.118,0,0,0,.15-.038l.645-.967a.2.2,0,0,1,.167-.081,1.912,1.912,0,0,0,.419-.043.091.091,0,0,1,.118.081l.086.844c0,.059.048.086.1.054l.87-.5a.247.247,0,0,0,.1-.167l.086-.967a.317.317,0,0,1,.091-.177,4.838,4.838,0,0,0,.484-.537.161.161,0,0,1,.172-.048l.537.193a.134.134,0,0,0,.156-.059L348.2,97.9a.14.14,0,0,0-.032-.167l-.446-.381a.172.172,0,0,1-.043-.172,5.4,5.4,0,0,0,.2-.677.29.29,0,0,1,.107-.167l.8-.537A.247.247,0,0,0,348.876,95.623Zm-3.4,3.17c-.811.473-1.467.091-1.467-.844a3.224,3.224,0,0,1,1.467-2.547c.811-.467,1.467-.086,1.467.849A3.224,3.224,0,0,1,345.475,98.793Z" transform="translate(-292.125 -83.56)"/><path class="h" d="M295.634,142.8c6.6-3.81,11.944-.72,11.944,6.9s-5.346,16.877-11.944,20.686-11.944.72-11.944-6.894S289.036,146.6,295.634,142.8Z" transform="translate(-265.078 -105.962)"/><path class="c" d="M302.429,154.9c2.149-1.236,3.874-.236,3.874,2.235a8.565,8.565,0,0,1-3.874,6.706c-2.149,1.236-3.879.236-3.879-2.235A8.559,8.559,0,0,1,302.429,154.9Z" transform="translate(-271.953 -112.074)"/><path class="c" d="M307.114,175.966c0-4.057-2.853-5.706-6.367-3.675l-2.23,1.268a14.109,14.109,0,0,0-6.367,11.031V185.7a6.678,6.678,0,0,0,2.053.317,10.821,10.821,0,0,0,5.325-1.612,23.539,23.539,0,0,0,7.587-7.5Z" transform="translate(-268.992 -119.962)"/><path class="c" d="M284.861,205.765l21.568-12.449c.639-.371,1.161-.107,1.161.591a2.5,2.5,0,0,1-1.161,1.929l-21.562,12.449c-.645.376-1.166.107-1.166-.586A2.493,2.493,0,0,1,284.861,205.765Z" transform="translate(-265.082 -130.015)"/><path class="h" d="M280.546,220.013l26.188-15.157c.645-.371,1.166-.107,1.166.591a2.493,2.493,0,0,1-1.166,1.929l-26.188,15.157c-.645.371-1.166.107-1.166-.591A2.493,2.493,0,0,1,280.546,220.013Z" transform="translate(-263.083 -135.354)"/><path class="m" d="M330.989,223.994l7.334-4.234c.387-.22.7-.118.7.231a1.4,1.4,0,0,1-.7,1.032l-7.334,4.234c-.382.22-.7.118-.7-.226A1.418,1.418,0,0,1,330.989,223.994Z" transform="translate(-286.639 -142.274)"/><path class="c" d="M262.4,256.94l10.773-6.217c.639-.371,1.161-.07,1.161.672v7.393a2.579,2.579,0,0,1-1.161,2.015L262.4,267.02c-.639.371-1.161.07-1.161-.672v-7.393A2.579,2.579,0,0,1,262.4,256.94Z" transform="translate(-254.69 -156.581)"/><path class="f" d="M266,260.6l7.334-4.234c.387-.22.7-.118.7.226a1.4,1.4,0,0,1-.7,1.037L266,261.866c-.387.22-.7.118-.7-.226A1.4,1.4,0,0,1,266,260.6Z" transform="translate(-256.569 -159.213)"/><path class="f" d="M265.3,266.522v2.149c0,.446.312.623.7.4l7.334-4.234a1.542,1.542,0,0,0,.7-1.209v-2.149c0-.446-.312-.623-.7-.4L266,265.291A1.553,1.553,0,0,0,265.3,266.522Z" transform="translate(-256.569 -161.402)"/><path class="c" d="M294.9,238.18l10.746-6.217c.645-.371,1.166-.07,1.166.672v7.393a2.568,2.568,0,0,1-1.166,2.015L294.9,248.26c-.645.371-1.161.07-1.161-.672v-7.393A2.563,2.563,0,0,1,294.9,238.18Z" transform="translate(-269.728 -147.901)"/><path class="f" d="M298.5,241.844l7.334-4.234c.382-.22.693-.118.693.226a1.413,1.413,0,0,1-.693,1.037l-7.334,4.234c-.387.22-.7.118-.7-.231A1.4,1.4,0,0,1,298.5,241.844Z" transform="translate(-271.606 -150.533)"/><path class="f" d="M297.8,247.762v2.149c0,.446.312.623.7.4l7.334-4.234a1.553,1.553,0,0,0,.693-1.209v-2.149c0-.446-.317-.623-.7-.4l-7.334,4.234A1.542,1.542,0,0,0,297.8,247.762Z" transform="translate(-271.606 -152.722)"/><path class="c" d="M327.4,219.415l10.746-6.222c.639-.371,1.161-.07,1.161.672v7.4a2.579,2.579,0,0,1-1.161,2.015L327.4,229.5c-.645.371-1.166.07-1.166-.672V221.43A2.568,2.568,0,0,1,327.4,219.415Z" transform="translate(-284.76 -139.216)"/><path class="f" d="M330.989,223.1l7.334-4.207c.387-.226.7-.124.7.226a1.386,1.386,0,0,1-.7,1.032l-7.334,4.234c-.382.226-.7.124-.7-.226A1.4,1.4,0,0,1,330.989,223.1Z" transform="translate(-286.639 -141.873)"/><path class="f" d="M330.29,228.995v2.149c0,.441.317.623.7.4l7.334-4.239a1.537,1.537,0,0,0,.7-1.209V223.95c0-.446-.312-.629-.7-.4l-7.334,4.234A1.547,1.547,0,0,0,330.29,228.995Z" transform="translate(-286.639 -144.035)"/><path class="g" d="M263.567,272.154l43.361-25.033c1.29-.741,2.327-.215,2.327,1.177a4.976,4.976,0,0,1-2.327,3.863l-43.361,25.033c-1.284.742-2.327.215-2.327-1.177A4.992,4.992,0,0,1,263.567,272.154Z" transform="translate(-254.69 -154.832)"/><path class="g" d="M263.567,290.924l43.361-25.033c1.29-.741,2.327-.215,2.327,1.177a4.976,4.976,0,0,1-2.327,3.863l-43.361,25.039c-1.284.741-2.327.215-2.327-1.182A4.992,4.992,0,0,1,263.567,290.924Z" transform="translate(-254.69 -163.517)"/><path class="c" d="M290.836,313.4l15.131-8.737c.645-.371,1.166-.07,1.166.672v4.873a2.568,2.568,0,0,1-1.166,2.015l-15.131,8.737c-.645.371-1.166.07-1.166-.672v-4.873a2.568,2.568,0,0,1,1.166-2.015Z" transform="translate(-267.845 -181.539)"/><path class="f" d="M266.4,295.261a2.413,2.413,0,0,0-1.075,1.891c0,.693.489.978,1.075.629a2.413,2.413,0,0,0,1.075-1.891C267.5,295.2,267.006,294.912,266.4,295.261Z" transform="translate(-256.583 -177.193)"/><path class="f" d="M272.845,291.537a2.4,2.4,0,0,0-1.075,1.891c0,.693.484.978,1.075.629a2.413,2.413,0,0,0,1.075-1.891C273.935,291.473,273.446,291.177,272.845,291.537Z" transform="translate(-259.562 -175.467)"/><path class="f" d="M279.275,287.857a2.413,2.413,0,0,0-1.075,1.891c0,.693.489.978,1.075.629a2.412,2.412,0,0,0,1.075-1.891C280.365,287.766,279.876,287.481,279.275,287.857Z" transform="translate(-262.537 -173.759)"/><path class="f" d="M285.715,284.1a2.407,2.407,0,0,0-1.075,1.891c0,.693.489.978,1.075.629a2.412,2.412,0,0,0,1.075-1.891C286.805,284.037,286.316,283.752,285.715,284.1Z" transform="translate(-265.517 -172.029)"/><path class="f" d="M292.145,280.381a2.413,2.413,0,0,0-1.075,1.891c0,.693.489.978,1.075.629a2.413,2.413,0,0,0,1.075-1.891C293.235,280.317,292.746,280.032,292.145,280.381Z" transform="translate(-268.492 -170.308)"/><path class="f" d="M298.575,276.661a2.413,2.413,0,0,0-1.075,1.891c0,.693.489.978,1.075.629a2.4,2.4,0,0,0,1.075-1.891C299.665,276.6,299.182,276.312,298.575,276.661Z" transform="translate(-271.467 -168.587)"/><path class="f" d="M305.015,272.945a2.413,2.413,0,0,0-1.075,1.891c0,.693.489.978,1.075.629a2.412,2.412,0,0,0,1.075-1.891C306.121,272.908,305.616,272.6,305.015,272.945Z" transform="translate(-274.447 -166.87)"/><path class="f" d="M266.4,314.044a2.423,2.423,0,0,0-1.075,1.891c0,.7.489.978,1.075.629a2.4,2.4,0,0,0,1.075-1.886C267.5,313.979,267.006,313.7,266.4,314.044Z" transform="translate(-256.583 -185.884)"/><path class="f" d="M272.845,310.323a2.407,2.407,0,0,0-1.075,1.891c0,.7.484.978,1.075.629a2.4,2.4,0,0,0,1.075-1.886C273.935,310.259,273.446,309.98,272.845,310.323Z" transform="translate(-259.562 -184.163)"/><path class="f" d="M279.275,306.6a2.423,2.423,0,0,0-1.075,1.891c0,.7.489.978,1.075.629a2.4,2.4,0,0,0,1.075-1.886C280.365,306.537,279.876,306.252,279.275,306.6Z" transform="translate(-262.537 -182.44)"/><path class="f" d="M285.715,302.874a2.412,2.412,0,0,0-1.075,1.891c0,.7.489.978,1.075.629a2.4,2.4,0,0,0,1.075-1.886C286.805,302.815,286.316,302.53,285.715,302.874Z" transform="translate(-265.517 -180.717)"/><path class="f" d="M292.145,299.161a2.413,2.413,0,0,0-1.075,1.891c0,.7.489.978,1.075.629a2.4,2.4,0,0,0,1.075-1.886C293.235,299.1,292.746,298.812,292.145,299.161Z" transform="translate(-268.492 -178.997)"/><path class="f" d="M298.575,295.441a2.413,2.413,0,0,0-1.075,1.891c0,.7.489.978,1.075.629a2.391,2.391,0,0,0,1.075-1.891C299.665,295.377,299.182,295.092,298.575,295.441Z" transform="translate(-271.467 -177.276)"/><path class="f" d="M305.015,291.721a2.412,2.412,0,0,0-1.075,1.891c0,.7.489.978,1.075.629a2.407,2.407,0,0,0,1.075-1.891C306.121,291.657,305.616,291.372,305.015,291.721Z" transform="translate(-274.447 -175.555)"/></g><g transform="translate(210.228 98.021)"><path class="h" d="M386.386,296.492a10.451,10.451,0,0,1-5.292-1.4c-3.874-2.241-6.093-6.915-6.093-12.842,0-10.413,6.62-22.39,15.045-27.268,4.551-2.627,9.07-2.912,12.729-.8,3.869,2.235,6.093,6.915,6.093,12.836,0,10.413-6.62,22.4-15.072,27.274a14.991,14.991,0,0,1-7.409,2.2Zm11.1-36.2a7.931,7.931,0,0,0-3.681,1.209c-6.125,3.519-11.283,13.035-11.283,20.756,0,3.127.876,5.5,2.343,6.346,1.671.967,4-.086,5.228-.8,6.141-3.541,11.321-13.057,11.321-20.778,0-3.127-.876-5.5-2.343-6.346a3.052,3.052,0,0,0-1.585-.387Z" transform="translate(-375 -191.829)"/><path class="m" d="M411.2,275.481c0-5.851-3.686-8.011-3.686-8.011h0c1.467.849,2.343,3.224,2.343,6.346,0,7.721-5.18,17.237-11.321,20.778-1.23.715-3.552,1.768-5.228.8,0,0,3.111,1.934,7.409-.414C406.941,291.59,411.2,283.2,411.2,275.481Z" transform="translate(-383.472 -198.624)"/><path class="m" d="M408.933,143.074a3.879,3.879,0,0,0-7.753,0h0v61.635h0a1.94,1.94,0,0,0,1.134,1.612,6.077,6.077,0,0,0,5.481,0,1.934,1.934,0,0,0,1.139-1.612h0V143.084h0Z" transform="translate(-387.113 -139.339)"/><path class="h" d="M396.828,168.33a4.954,4.954,0,0,0-2.241-3.879,1.558,1.558,0,0,0-1.612-.14h0l-9.553,5.507-.231.134a.361.361,0,0,0-.1.059,3.36,3.36,0,0,0-.457.371,3.17,3.17,0,0,0,3.734,5.04l.183-.107,9.623-5.54h0a1.574,1.574,0,0,0,.65-1.445Z" transform="translate(-378.102 -150.818)"/><path class="h" d="M395.4,197.05a4.954,4.954,0,0,0-2.241-3.874,1.547,1.547,0,0,0-1.612-.145h0l-11.208,6.448-.231.134a.418.418,0,0,0-.1.059,3.056,3.056,0,0,0-.457.371,3.181,3.181,0,0,0,.709,5.04,3.223,3.223,0,0,0,1.515.376,3.159,3.159,0,0,0,1.51-.376c.064-.032.124-.075.183-.107l11.283-6.448h0A1.574,1.574,0,0,0,395.4,197.05Z" transform="translate(-376.674 -164.107)"/></g></g></svg>