<svg xmlns="http://www.w3.org/2000/svg" width="42.831" height="56.996" viewBox="0 0 42.831 56.996"><defs><style>.a{fill:#032250;opacity:0.96;}.b{fill:#149dff;opacity:0.87;}</style></defs><g transform="translate(-0.004 -0.291)"><path class="a" d="M18.942,34.072,5,34.6A4.824,4.824,0,0,1,.559,27.536l6.5-12.342L13.588,2.861a4.819,4.819,0,0,1,8.342-.314l7.426,11.807,7.425,11.811a4.819,4.819,0,0,1-3.9,7.381Z"/><path class="b" d="M34.628,69.232l13.945-.495a4.819,4.819,0,0,1,4.417,7.068L46.457,88.137,39.92,100.456a4.824,4.824,0,0,1-8.348.3l-7.4-11.826L16.775,77.1a4.819,4.819,0,0,1,3.914-7.376Z" transform="translate(-10.713 -45.73)"/></g></svg>