<svg xmlns="http://www.w3.org/2000/svg" width="178.831" height="178.889" viewBox="0 0 178.831 178.889"><defs><style>.a,.b{fill:#32a9ff;}.a{fill-rule:evenodd;}.b{font-size:60px;font-family:Poppins-Regular, Poppins;letter-spacing:0.06em;}</style></defs><g transform="translate(-212.998 -123.144)"><g transform="translate(207 117.161)"><g transform="translate(5.998 5.983)"><path class="a" d="M53.945,958.35a4.065,4.065,0,0,0-3.62,4.128v11.875H28.735A22.843,22.843,0,0,0,6,997.086v24.385q-.006.159,0,.318V1114.5a22.84,22.84,0,0,0,22.734,22.734H162.152a22.785,22.785,0,0,0,22.67-22.734v-92.459c0-.085,0-.169,0-.254a4.065,4.065,0,0,0,0-.445V997.086a22.789,22.789,0,0,0-22.67-22.734H139.863V962.477a4.065,4.065,0,1,0-8.128,0v11.875H58.453V962.477a4.064,4.064,0,0,0-4.128-4.128q-.19-.009-.381,0Zm-39.816,67.5H176.694V1114.5a14.591,14.591,0,0,1-14.542,14.605H28.735A14.645,14.645,0,0,1,14.129,1114.5v-88.649Z" transform="translate(-5.998 -958.345)"/></g></g><text class="b" transform="translate(303 258)"><tspan x="-30.27" y="0">14</tspan></text></g></svg>