<svg xmlns="http://www.w3.org/2000/svg" width="156.449" height="168.975" viewBox="0 0 156.449 168.975"><defs><style>.a,.c{fill:#32a9ff;}.a{opacity:0.2;}.b{fill:#fff;opacity:0.3;}</style></defs><path class="a" d="M259.939,320.73s-63.839,37.692-63.839,73.4H323.8C323.787,358.422,259.939,320.73,259.939,320.73Z" transform="translate(-183.235 -234.722)"/><path class="a" d="M260.678,372.5s-58.948,14.6-58.948,28.432h117.9C319.627,387.1,260.678,372.5,260.678,372.5Z" transform="translate(-183.974 -241.521)"/><path class="b" d="M278.51,332.71c11.988,11.788,35.286,37.909,35.286,63H297.821C297.821,370.619,285.069,344.5,278.51,332.71Z" transform="translate(-194.057 -236.296)"/><path class="a" d="M259.939,309.633S196.1,271.941,196.1,236.23H323.8C323.787,271.941,259.939,309.633,259.939,309.633Z" transform="translate(-183.235 -223.626)"/><path class="a" d="M264.663,312.16S232.07,296.524,232.07,281.67h65.194C297.264,296.5,264.663,312.16,264.663,312.16Z" transform="translate(-187.959 -229.593)"/><path class="b" d="M256.251,299.226C244.272,287.438,221,261.317,221,236.23h15.975C236.94,261.317,249.666,287.438,256.251,299.226Z" transform="translate(-186.505 -223.626)"/><path class="b" d="M278.51,299.226c11.988-11.788,34.7-40.932,35.286-63h-4.257C307.541,263.133,288,287.821,278.51,299.226Z" transform="translate(-194.057 -223.626)"/><rect class="c" width="7.236" height="0.869" transform="translate(124.646)"/><path class="c" d="M358.433,233.656h-.869a11.076,11.076,0,0,0-11.058-11.067H338.87v-.869h7.636a11.953,11.953,0,0,1,11.927,11.936Z" transform="translate(-201.984 -221.72)"/><rect class="c" width="153.408" height="19.128" rx="9.564" transform="translate(0 3.04)"/><rect class="c" width="153.408" height="19.128" rx="9.564" transform="translate(0 149.847)"/></svg>